<svg xmlns="http://www.w3.org/2000/svg" id="Layer_2" data-name="Layer 2" viewBox="0 0 743.39 737.78" width="743.39" height="737.78"><defs>
    <style>
      .cls-1 {
        fill: #fff;
        stroke-width: 0px;
      }
    </style>
  </defs><g id="Layer_1-2" data-name="Layer 1">
    <g>
      <path class="cls-1" d="m306.24,536.99c-8.94-1.27-17.2,4.96-18.47,13.87-1.27,8.91,4.95,17.19,13.87,18.45,8.89,1.27,17.15-4.96,18.42-13.87,1.27-8.91-4.95-17.19-13.82-18.45Z"></path>
      <path class="cls-1" d="m376.48,559.17c-9.01,0-16.32,7.29-16.32,16.27s7.31,16.34,16.32,16.34,16.32-7.31,16.32-16.34-7.33-16.27-16.32-16.27Z"></path>
      <path class="cls-1" d="m457.24,547.53c-1.62-8.86-10.13-14.74-18.99-13.12-8.86,1.6-14.76,10.11-13.14,18.99,1.62,8.83,10.13,14.71,18.99,13.09,8.84-1.62,14.76-10.11,13.14-18.95Z"></path>
      <path class="cls-1" d="m422.63,656.07c-8.99,0-16.32,7.31-16.32,16.32s7.33,16.29,16.32,16.29,16.34-7.31,16.34-16.29-7.33-16.32-16.34-16.32Z"></path>
      <path class="cls-1" d="m269.6,674.32c-8.99,0-16.32,7.31-16.32,16.29s7.33,16.32,16.32,16.32,16.32-7.31,16.32-16.32-7.33-16.29-16.32-16.29Z"></path>
      <path class="cls-1" d="m338.64,633.45c-9.01,0-16.32,7.31-16.32,16.34s7.31,16.27,16.32,16.27,16.32-7.29,16.32-16.27-7.33-16.34-16.32-16.34Z"></path>
      <path class="cls-1" d="m526.72,581.22l-24,24c7.05,11.49,6.13,26.5-3.81,36.44-11.64,11.64-30.58,11.68-42.22.03-11.64-11.64-11.61-30.58.03-42.22,9.94-9.94,24.95-10.86,36.44-3.81l24.32-24.32c-11.04-10.56-22.47-18.6-28.26-31.14-4.1-8.86-8.96-18.32-15.31-27.26l-11.79,17.05c4.03,4.11,7.29,9.04,8.41,15.12,2.95,16.19-7.81,31.74-24,34.69-16.21,2.95-31.76-7.81-34.71-24-2.95-16.19,7.81-31.79,24-34.74,5.23-.95,10.21-.05,14.91,1.58l14.31-20.67c-16.62-17.9-41.5-31.24-81.81-28.81v73.81c13.12,3.13,23.08,14.41,23.08,28.46,0,16.46-13.37,29.88-29.83,29.88s-29.85-13.42-29.85-29.88c0-14.06,9.98-25.32,23.08-28.46v-72.48c-3.05.42-6.16.92-9.38,1.5-36.21,6.58-61.46,16.8-80.01,28.96l14.92,19.87c4.08-1.27,8.39-1.85,12.89-1.22,16.29,2.32,27.65,17.44,25.33,33.74-2.32,16.29-17.44,27.65-33.73,25.33-16.31-2.32-27.7-17.44-25.38-33.74.97-6.9,4.58-12.57,9.28-17.04l-14.24-18.97c-24.52,19.9-35.27,43.62-47.78,65.02l13.51,15.87c12.02-6.1,26.93-3.95,36.04,6.76,10.66,12.54,9.14,31.39-3.4,42.05-12.54,10.66-31.39,9.14-42.05-3.4-9.11-10.71-8.84-25.78-.88-36.67l-10.71-12.59c-.35.52-.7,1.02-1.05,1.53-15.72,22.57-55.93,54.09-45.17,102.83,3.51,15.89,24.7,33.03,51.95,40.09l26.26-26.26c-3.73-4.98-6.35-10.86-6.35-17.55,0-16.46,13.37-29.85,29.83-29.85s29.83,13.39,29.83,29.85-13.37,29.88-29.83,29.88c-4.81,0-9.19-1.42-13.21-3.45l-20.27,20.27c12.59,1.22,25.88.13,38.97-4.13,21.53-7.03,39.97-9.76,56.78-10.26v-44.67c-13.11-3.15-23.08-14.41-23.08-28.46,0-16.47,13.39-29.88,29.85-29.88s29.83,13.41,29.83,29.88c0,14.06-9.96,25.32-23.08,28.46v44.73c39.01,1.42,70.92,12.79,117.17,4.88l-28.11-28.11c-3.63,1.57-7.59,2.48-11.81,2.48-16.46,0-29.83-13.39-29.83-29.85s13.37-29.88,29.83-29.88,29.85,13.42,29.85,29.88c0,7.29-2.95,13.76-7.31,18.95l33.18,33.16c31.78-8.43,64.05-32.73,66.74-72.07,2.51-36.59-6.56-56.86-18.35-71.22Z"></path>
      <path class="cls-1" d="m258.99,632.32c6.85-5.83,7.69-16.14,1.88-22.97-5.85-6.88-16.16-7.69-23.02-1.87-6.85,5.83-7.69,16.14-1.85,23,5.81,6.85,16.12,7.66,22.98,1.83Z"></path>
      <path class="cls-1" d="m489.33,609.05c-6.36-6.36-16.72-6.38-23.07-.03-6.38,6.38-6.36,16.74,0,23.1,6.36,6.36,16.72,6.38,23.1,0s6.33-16.7-.03-23.07Z"></path>
      <path class="cls-1" d="m661.69,349.99c-8.19-3.75-17.89-.12-21.62,8.08-3.73,8.19-.12,17.89,8.08,21.63,8.18,3.71,17.85.08,21.58-8.11,3.75-8.19.13-17.89-8.04-21.6Z"></path>
      <path class="cls-1" d="m628.08,422.82c-5.08-7.43-15.24-9.36-22.65-4.3-7.46,5.08-9.36,15.26-4.28,22.68,5.08,7.43,15.24,9.36,22.68,4.28,7.41-5.06,9.31-15.24,4.25-22.67Z"></path>
      <path class="cls-1" d="m701.53,409.01c-8.79-1.77-17.4,3.96-19.19,12.79-1.78,8.81,3.93,17.44,12.72,19.22,8.84,1.78,17.45-3.95,19.24-12.77,1.78-8.81-3.93-17.44-12.77-19.24Z"></path>
      <path class="cls-1" d="m670.79,481.21c-8.94-1.28-17.2,4.95-18.47,13.86-1.27,8.91,4.95,17.19,13.87,18.47,8.88,1.25,17.15-4.96,18.42-13.87,1.27-8.91-4.95-17.2-13.82-18.45Z"></path>
      <path class="cls-1" d="m704.21,395.77c13.77,2.78,22.88,14.79,23.37,28.26l15.22,3.08c2.36-32.04-2.5-63.27-13.56-82.62l-45.2,16.9c.63,5.26.38,10.66-1.97,15.82-6.83,14.97-24.55,21.6-39.52,14.77-14.97-6.83-21.63-24.57-14.82-39.54,6.83-14.99,24.6-21.58,39.57-14.76,5.3,2.41,9.08,6.46,12.06,10.99l41.34-15.46-.15-.15c-6.15-5.86-12.26-10.54-18.44-14.09-12.42-36.54-31.14-77.81-45.78-80.49-6.11,2.85-24.75,58.03-45.48,100.28-29.05,30.18-48.45,78.76-47.52,120.08l23.95-16.36c-4.8-12.61-1.08-27.21,10.53-35.14,13.59-9.28,32.18-5.78,41.47,7.81,9.28,13.59,5.78,32.18-7.81,41.47-11.63,7.93-26.56,6.06-36.57-3l-30.18,20.62c3.48,21.68,13.64,40.12,32.34,50.9,56.84,32.78,95.58,18.4,118.83-14.24l-20.17-2.86c-4.95,12.54-17.5,20.82-31.43,18.85-16.31-2.32-27.71-17.45-25.4-33.74,2.32-16.31,17.49-27.65,33.79-25.33,13.92,1.97,23.67,13.42,24.93,26.85l26.03,3.7c9.09-17.02,14.92-37.24,17.74-57.76l-16.47-3.33c-5.7,12.22-18.74,19.75-32.53,16.97-16.12-3.25-26.6-19.02-23.33-35.14,3.26-16.14,19.02-26.6,35.16-23.35Z"></path>
      <path class="cls-1" d="m130.32,358.85c-8.99,0-16.32,7.29-16.32,16.32s7.33,16.27,16.32,16.27,16.32-7.29,16.32-16.27-7.33-16.32-16.32-16.32Z"></path>
      <path class="cls-1" d="m54.34,411.23c-8.99,0-16.32,7.31-16.32,16.29s7.33,16.32,16.32,16.32,16.32-7.29,16.32-16.32-7.33-16.29-16.32-16.29Z"></path>
      <path class="cls-1" d="m57.57,334.43c-8.84-1.78-17.45,3.95-19.24,12.77-1.78,8.83,3.93,17.45,12.77,19.24,8.79,1.78,17.4-3.96,19.19-12.77,1.78-8.83-3.93-17.45-12.72-19.24Z"></path>
      <path class="cls-1" d="m177.9,410.18c2.02-38.46-12.42-78.41-56.18-107.14-6.1-4-11.97-7.19-17.72-9.74-10.41-27.56-17.84-54.34-27.45-61.02-9.73.3-35.51,34.91-42.07,67.35-1.23,1.02-2.45,2.1-3.63,3.25l13.32,20.07c5.05-1.87,10.43-2.88,16.06-1.75,16.14,3.26,26.6,19.02,23.35,35.16-3.26,16.12-19.02,26.6-35.16,23.33-16.12-3.26-26.63-19.02-23.38-35.16,1.15-5.65,4.18-10.19,7.86-14.11l-11.28-16.97c-24.2,33.23-29.63,90.94-8.41,140.95l14.29-14.29c-1.82-3.86-3-8.06-3-12.59,0-16.45,13.37-29.83,29.83-29.83s29.85,13.37,29.85,29.83-13.39,29.88-29.85,29.88c-6.96,0-13.09-2.78-18.17-6.8l-16.75,16.74c12.94,24.15,32.69,45.7,60.24,60.62,17.37,9.41,40.87-2.17,60.56-24.92l-8.03-9.44c-12.02,6.1-26.95,3.95-36.04-6.76-10.68-12.54-9.14-31.39,3.4-42.05,12.54-10.66,31.39-9.14,42.05,3.4,9.11,10.73,8.83,25.78.88,36.67l6.23,7.33c12.76-18,22.95-40.72,27.23-64.84l-28.45-28.45c-4.93,3.56-10.64,6.1-17.17,6.1-16.46,0-29.83-13.37-29.83-29.83s13.37-29.88,29.83-29.88,29.83,13.42,29.83,29.88c0,4.96-1.52,9.46-3.68,13.59l21.43,21.42Z"></path>
      <path class="cls-1" d="m131.3,456.94c-5.81-6.85-16.12-7.66-22.98-1.83s-7.71,16.14-1.9,22.98c5.85,6.86,16.17,7.68,23.02,1.85,6.86-5.83,7.71-16.14,1.87-23Z"></path>
      <path class="cls-1" d="m328.31,95.52c-.27-8.83-.37-17.8-.4-26.56l-12.51,39.49c11.56,6.96,17.65,20.72,13.41,34.11-4.96,15.71-21.77,24.45-37.46,19.49-15.69-4.96-24.38-21.8-19.42-37.49,4.25-13.41,17.15-21.14,30.59-20.17l25.4-80.23c-.12-13.49-.6-22.73-2.2-24.15-12.84.82-40.7,36.21-64.04,70.85-6.16,2.7-12.56,6.5-19.27,11.61-.58.43-1.15.88-1.72,1.32v70.57l39.41,39.41c4.58-2.83,9.64-4.91,15.41-4.91,16.46,0,29.85,13.39,29.85,29.85s-13.39,29.88-29.85,29.88-29.83-13.42-29.83-29.88c0-5.75,2.05-10.79,4.86-15.36l-43.35-43.35v-65.27c-23.37,19.8-40.92,39.87-53.2,59.54l16.82,16.8c3.46-1.42,7.23-2.27,11.19-2.27,16.46,0,29.83,13.37,29.83,29.83s-13.37,29.85-29.83,29.85-29.88-13.39-29.88-29.85c0-7.51,3.05-14.19,7.66-19.44l-12.77-12.76c-34.83,67.1-8.28,127.94,58.34,155.96v-25.53c-13.11-3.15-23.08-14.41-23.08-28.46,0-16.47,13.37-29.88,29.83-29.88s29.85,13.41,29.85,29.88c0,14.06-9.98,25.32-23.08,28.46v30.45c118.38,35.96,136.85-156.17,89.44-231.77Z"></path>
      <path class="cls-1" d="m311.84,218.68c0-8.98-7.33-16.29-16.32-16.29s-16.32,7.31-16.32,16.29,7.33,16.32,16.32,16.32,16.32-7.29,16.32-16.32Z"></path>
      <path class="cls-1" d="m248.45,268.38c0-9.03-7.33-16.34-16.34-16.34s-16.32,7.31-16.32,16.34,7.33,16.27,16.32,16.27,16.34-7.29,16.34-16.27Z"></path>
      <path class="cls-1" d="m218.31,198.61c0-8.99-7.31-16.32-16.29-16.32s-16.32,7.33-16.32,16.32,7.29,16.32,16.32,16.32,16.29-7.31,16.29-16.32Z"></path>
      <path class="cls-1" d="m305.29,118.03c-8.58-2.71-17.77,2.03-20.49,10.59-2.71,8.59,2.07,17.77,10.64,20.49,8.58,2.71,17.77-2.03,20.49-10.63,2.71-8.56-2.07-17.74-10.64-20.45Z"></path>
      <path class="cls-1" d="m531.98,202.61c-9.03,0-16.32,7.33-16.32,16.32s7.29,16.32,16.32,16.32,16.27-7.31,16.27-16.32-7.29-16.32-16.27-16.32Z"></path>
      <path class="cls-1" d="m582.48,225.69h-22.03c-3.13,13.11-14.41,23.08-28.46,23.08-16.46,0-29.88-13.39-29.88-29.85s13.42-29.83,29.88-29.83c14.06,0,25.33,9.96,28.46,23.08h19.34c-7.83-31.78-27.15-68.7-63.22-110.75-.72-.83-1.42-1.63-2.13-2.4l-19.25,19.25c7.04,11.49,6.13,26.51-3.81,36.46-11.64,11.64-30.59,11.68-42.22.03-11.64-11.64-11.61-30.59.03-42.22,9.94-9.94,24.95-10.86,36.44-3.81l18.95-18.95c-5.46-4.3-10.89-7.23-16.29-8.98-.02-.02,0-.1,0-.1C468.93,43.47,443.75,2.18,432.02,1.13c-3.9,3.88-2.8,67.35-7.16,115.32-20.5,33.14-33.09,83.16-30.31,129.37l20.14-20.14c-3.13-4.73-5.41-10.08-5.41-16.16,0-16.46,13.37-29.88,29.85-29.88s29.83,13.42,29.83,29.88-13.37,29.83-29.83,29.83c-5.41,0-10.23-1.83-14.61-4.36l-28.15,28.15c6.6,43.62,28.55,81.19,72.65,93.77,1.15.33,2.38.6,3.66.78v-48.25c-13.11-3.15-23.08-14.44-23.08-28.5,0-16.45,13.37-29.85,29.83-29.85s29.85,13.39,29.85,29.85c0,14.06-9.98,25.35-23.08,28.5v48.3c40.6-4.68,108.91-48.93,96.3-132.06Z"></path>
      <path class="cls-1" d="m479.42,264.66c-8.99,0-16.32,7.31-16.32,16.29s7.33,16.32,16.32,16.32,16.34-7.31,16.34-16.32-7.33-16.29-16.34-16.29Z"></path>
      <path class="cls-1" d="m481.77,122.13c-6.36-6.36-16.7-6.38-23.05-.03-6.38,6.38-6.36,16.72,0,23.08,6.36,6.38,16.7,6.38,23.08,0,6.35-6.35,6.35-16.69-.03-23.05Z"></path>
      <path class="cls-1" d="m439.12,193.21c-9.01,0-16.34,7.29-16.34,16.32s7.33,16.29,16.34,16.29,16.32-7.31,16.32-16.29-7.33-16.32-16.32-16.32Z"></path>
    </g>
  </g><style>@media (prefers-color-scheme: light) { :root { filter: contrast(1) brightness(0.1); } }
@media (prefers-color-scheme: dark) { :root { filter: none; } }
</style></svg>